<svg xmlns="http://www.w3.org/2000/svg" xmlns:xlink="http://www.w3.org/1999/xlink" width="500" zoomAndPan="magnify" viewBox="0 0 375 374.999991" height="500" preserveAspectRatio="xMidYMid meet" version="1.0"><defs><g/><clipPath id="5c71f6b7e7"><path d="M 113.101562 121.609375 L 263.101562 121.609375 L 263.101562 271.609375 L 113.101562 271.609375 Z M 113.101562 121.609375 " clip-rule="nonzero"/></clipPath><clipPath id="de3f09c311"><path d="M 86.851562 103.390625 L 301.949219 103.390625 L 301.949219 196.609375 L 86.851562 196.609375 Z M 86.851562 103.390625 " clip-rule="nonzero"/></clipPath><clipPath id="74ee13bd71"><path d="M 0.851562 0.390625 L 215.949219 0.390625 L 215.949219 93.609375 L 0.851562 93.609375 Z M 0.851562 0.390625 " clip-rule="nonzero"/></clipPath><clipPath id="905b2176b7"><rect x="0" width="216" y="0" height="94"/></clipPath></defs><rect x="-37.5" width="450" fill="#ffffff" y="-37.499999" height="449.999989" fill-opacity="1"/><rect x="-37.5" width="450" fill="#d6d1ce" y="-37.499999" height="449.999989" fill-opacity="1"/><g clip-path="url(#5c71f6b7e7)"><path fill="#000000" d="M 188.101562 271.609375 C 146.757812 271.609375 113.101562 237.953125 113.101562 196.609375 C 113.101562 155.269531 146.757812 121.609375 188.101562 121.609375 C 229.441406 121.609375 263.101562 155.269531 263.101562 196.609375 C 263.101562 237.953125 229.441406 271.609375 188.101562 271.609375 Z M 188.101562 122.71875 C 147.347656 122.71875 114.207031 155.859375 114.207031 196.609375 C 114.207031 237.363281 147.347656 270.503906 188.101562 270.503906 C 228.851562 270.503906 261.992188 237.363281 261.992188 196.609375 C 261.992188 155.859375 228.851562 122.71875 188.101562 122.71875 Z M 188.101562 122.71875 " fill-opacity="1" fill-rule="nonzero"/></g><g clip-path="url(#de3f09c311)"><g transform="matrix(1, 0, 0, 1, 86, 103)"><g clip-path="url(#905b2176b7)"><g clip-path="url(#74ee13bd71)"><path fill="#d6d1ce" d="M 0.851562 0.390625 L 216.0625 0.390625 L 216.0625 93.609375 L 0.851562 93.609375 Z M 0.851562 0.390625 " fill-opacity="1" fill-rule="nonzero"/></g></g></g></g><g fill="#000000" fill-opacity="1"><g transform="translate(161.940243, 223.369454)"><g><path d="M 2.015625 -67.34375 L 49.09375 -67.34375 L 49.09375 -58.25 L 48.421875 -58.25 C 48.421875 -58.34375 48.429688 -58.375 48.453125 -58.34375 C 48.472656 -58.320312 48.484375 -58.378906 48.484375 -58.515625 C 48.484375 -60.046875 47.617188 -61.414062 45.890625 -62.625 C 44.160156 -63.84375 41.78125 -64.820312 38.75 -65.5625 C 35.71875 -66.300781 32.273438 -66.671875 28.421875 -66.671875 L 28.421875 -18.71875 C 28.421875 -14.320312 28.488281 -10.796875 28.625 -8.140625 C 28.757812 -5.492188 29.21875 -3.585938 30 -2.421875 C 30.789062 -1.253906 32.148438 -0.671875 34.078125 -0.671875 L 34.078125 0 L 16.5 0 L 16.5 -0.671875 C 18.425781 -0.671875 19.828125 -1.253906 20.703125 -2.421875 C 21.578125 -3.585938 22.125 -5.492188 22.34375 -8.140625 C 22.570312 -10.796875 22.6875 -14.320312 22.6875 -18.71875 L 22.6875 -66.671875 C 18.832031 -66.671875 15.390625 -66.300781 12.359375 -65.5625 C 9.328125 -64.820312 6.945312 -63.84375 5.21875 -62.625 C 3.488281 -61.414062 2.625 -60.046875 2.625 -58.515625 C 2.625 -58.378906 2.632812 -58.320312 2.65625 -58.34375 C 2.675781 -58.375 2.6875 -58.34375 2.6875 -58.25 L 2.015625 -58.25 Z M 2.015625 -67.34375 "/></g></g></g><g fill="#000000" fill-opacity="1"><g transform="translate(127.430384, 205.112194)"><g><path d="M -10.390625 -4.359375 L -9.453125 -4.578125 L -8.890625 -2.15625 L -0.953125 -4.03125 L -0.671875 -2.875 L -8.609375 -1 L -8.03125 1.453125 L -8.96875 1.671875 Z M -10.390625 -4.359375 "/></g></g></g><g fill="#000000" fill-opacity="1"><g transform="translate(124.797977, 188.722957)"><g><path d="M -9.015625 -2.578125 L -3.265625 -2.328125 C -2.453125 -2.285156 -1.835938 -2.453125 -1.421875 -2.828125 C -1.003906 -3.210938 -0.78125 -3.757812 -0.75 -4.46875 C -0.71875 -5.164062 -0.890625 -5.722656 -1.265625 -6.140625 C -1.648438 -6.554688 -2.25 -6.785156 -3.0625 -6.828125 L -8.8125 -7.078125 L -8.765625 -8.265625 L -3.015625 -8.015625 C -2.253906 -7.972656 -1.617188 -7.785156 -1.109375 -7.453125 C -0.609375 -7.128906 -0.242188 -6.703125 -0.015625 -6.171875 C 0.210938 -5.640625 0.3125 -5.050781 0.28125 -4.40625 C 0.257812 -3.757812 0.109375 -3.179688 -0.171875 -2.671875 C -0.453125 -2.171875 -0.851562 -1.78125 -1.375 -1.5 C -1.90625 -1.21875 -2.550781 -1.097656 -3.3125 -1.140625 L -9.0625 -1.390625 Z M -9.015625 -2.578125 "/></g></g></g><g fill="#000000" fill-opacity="1"><g transform="translate(126.958126, 170.553443)"><g><path d="M 2.703125 -7.734375 L 2.296875 -6.59375 L -6.140625 -4.46875 L 0.71875 -2.078125 L 0.328125 -0.953125 L -8.296875 -3.96875 L -7.90625 -5.09375 L 0.515625 -7.21875 L -6.328125 -9.609375 L -5.921875 -10.75 Z M 2.703125 -7.734375 "/></g></g></g><g fill="#000000" fill-opacity="1"><g transform="translate(134.420396, 153.454132)"><g><path d="M 2.125 -6.375 L -0.21875 -3.140625 L 0.984375 -1.359375 L 0.25 -0.359375 L -5.15625 -8.34375 L -4.34375 -9.46875 L 4.921875 -6.796875 L 4.1875 -5.78125 Z M 1.140625 -6.671875 L -3.5625 -8.03125 L -0.796875 -4 Z M 1.140625 -6.671875 "/></g></g></g><g fill="#000000" fill-opacity="1"><g transform="translate(146.224008, 139.487617)"><g><path d="M 0.84375 -12.140625 L 6.390625 -4.890625 L 5.4375 -4.15625 L 2.921875 -7.4375 L -0.765625 -4.625 L 1.75 -1.34375 L 0.8125 -0.609375 L -4.734375 -7.859375 L -3.796875 -8.59375 L -1.359375 -5.40625 L 2.328125 -8.21875 L -0.109375 -11.40625 Z M 0.84375 -12.140625 "/></g></g></g><g fill="#000000" fill-opacity="1"><g transform="translate(161.735753, 129.372728)"><g><path d="M 5.265625 -4.171875 L 1.546875 -2.765625 L 1.578125 -0.59375 L 0.40625 -0.15625 L 0.265625 -9.8125 L 1.5625 -10.296875 L 7.84375 -2.984375 L 6.671875 -2.53125 Z M 4.609375 -4.96875 L 1.421875 -8.671875 L 1.515625 -3.796875 Z M 4.609375 -4.96875 "/></g></g></g><g fill="#000000" fill-opacity="1"><g transform="translate(179.262223, 124.167566)"><g><path d="M 8.171875 -0.578125 L 6.96875 -0.5 L 1.6875 -7.40625 L 2.203125 -0.15625 L 1.015625 -0.078125 L 0.359375 -9.203125 L 1.546875 -9.28125 L 6.828125 -2.390625 L 6.3125 -9.625 L 7.515625 -9.703125 Z M 8.171875 -0.578125 "/></g></g></g><g fill="#000000" fill-opacity="1"><g transform="translate(197.895278, 124.186376)"><g><path d="M 4.984375 1.265625 C 4.160156 1.078125 3.453125 0.707031 2.859375 0.15625 C 2.273438 -0.382812 1.863281 -1.046875 1.625 -1.828125 C 1.394531 -2.617188 1.382812 -3.445312 1.59375 -4.3125 C 1.800781 -5.1875 2.179688 -5.921875 2.734375 -6.515625 C 3.296875 -7.117188 3.957031 -7.53125 4.71875 -7.75 C 5.488281 -7.976562 6.285156 -8 7.109375 -7.8125 C 7.941406 -7.613281 8.65625 -7.238281 9.25 -6.6875 C 9.84375 -6.144531 10.253906 -5.484375 10.484375 -4.703125 C 10.710938 -3.921875 10.722656 -3.085938 10.515625 -2.203125 C 10.304688 -1.335938 9.925781 -0.601562 9.375 0 C 8.820312 0.59375 8.160156 1 7.390625 1.21875 C 6.617188 1.445312 5.816406 1.460938 4.984375 1.265625 Z M 5.21875 0.265625 C 5.851562 0.421875 6.453125 0.410156 7.015625 0.234375 C 7.578125 0.0546875 8.0625 -0.265625 8.46875 -0.734375 C 8.882812 -1.203125 9.175781 -1.785156 9.34375 -2.484375 C 9.507812 -3.203125 9.507812 -3.863281 9.34375 -4.46875 C 9.1875 -5.070312 8.894531 -5.570312 8.46875 -5.96875 C 8.039062 -6.375 7.507812 -6.65625 6.875 -6.8125 C 6.25 -6.957031 5.65625 -6.941406 5.09375 -6.765625 C 4.53125 -6.597656 4.046875 -6.28125 3.640625 -5.8125 C 3.234375 -5.34375 2.945312 -4.75 2.78125 -4.03125 C 2.613281 -3.332031 2.609375 -2.679688 2.765625 -2.078125 C 2.921875 -1.472656 3.210938 -0.96875 3.640625 -0.5625 C 4.078125 -0.15625 4.601562 0.117188 5.21875 0.265625 Z M 6.3125 -8.84375 C 6.113281 -8.882812 5.960938 -8.984375 5.859375 -9.140625 C 5.765625 -9.296875 5.738281 -9.472656 5.78125 -9.671875 C 5.820312 -9.847656 5.921875 -9.988281 6.078125 -10.09375 C 6.242188 -10.195312 6.425781 -10.226562 6.625 -10.1875 C 6.800781 -10.144531 6.9375 -10.039062 7.03125 -9.875 C 7.132812 -9.707031 7.164062 -9.535156 7.125 -9.359375 C 7.082031 -9.160156 6.976562 -9.015625 6.8125 -8.921875 C 6.65625 -8.828125 6.488281 -8.800781 6.3125 -8.84375 Z M 8.359375 -8.359375 C 8.179688 -8.398438 8.046875 -8.492188 7.953125 -8.640625 C 7.859375 -8.796875 7.832031 -8.972656 7.875 -9.171875 C 7.914062 -9.347656 8.015625 -9.488281 8.171875 -9.59375 C 8.328125 -9.707031 8.492188 -9.742188 8.671875 -9.703125 C 8.867188 -9.648438 9.015625 -9.539062 9.109375 -9.375 C 9.210938 -9.207031 9.242188 -9.035156 9.203125 -8.859375 C 9.160156 -8.660156 9.054688 -8.515625 8.890625 -8.421875 C 8.734375 -8.328125 8.554688 -8.304688 8.359375 -8.359375 Z M 8.359375 -8.359375 "/></g></g></g><g fill="#000000" fill-opacity="1"><g transform="translate(216.686896, 130.238037)"><g><path d="M 2.265625 0.109375 L 6.140625 2.3125 L 5.625 3.203125 L 0.53125 0.296875 L 1 -0.515625 L 8.375 -4.546875 L 4.5625 -6.703125 L 5.078125 -7.59375 L 10.109375 -4.734375 L 9.640625 -3.921875 Z M 2.265625 0.109375 "/></g></g></g><g fill="#000000" fill-opacity="1"><g transform="translate(230.482352, 139.508246)"><g><path d="M 4.203125 4.21875 L 4.5 -1.375 L 1.5625 1.5625 L 0.71875 0.71875 L 7.171875 -5.734375 L 8.015625 -4.890625 L 5.015625 -1.890625 L 10.671875 -2.234375 L 11.734375 -1.171875 L 5.59375 -0.859375 L 5.3125 5.3125 Z M 4.203125 4.21875 "/></g></g></g><g fill="#000000" fill-opacity="1"><g transform="translate(241.768455, 152.824892)"><g><path d="M 8.9375 -2.84375 L 1.140625 1.890625 L 0.53125 0.875 L 8.328125 -3.859375 Z M 8.9375 -2.84375 "/></g></g></g><g fill="#000000" fill-opacity="1"><g transform="translate(247.684164, 164.259971)"><g><path d="M 1.75 5.546875 L 4.65625 2.34375 L 4.21875 0.96875 L 0.65625 2.09375 L 0.3125 0.96875 L 9.015625 -1.78125 L 9.890625 1.015625 C 10.097656 1.671875 10.160156 2.265625 10.078125 2.796875 C 10.003906 3.328125 9.8125 3.765625 9.5 4.109375 C 9.1875 4.453125 8.78125 4.703125 8.28125 4.859375 C 7.6875 5.046875 7.101562 5.035156 6.53125 4.828125 C 5.96875 4.628906 5.503906 4.207031 5.140625 3.5625 L 2.171875 6.90625 Z M 5.125 0.6875 L 5.65625 2.359375 C 5.851562 2.972656 6.148438 3.390625 6.546875 3.609375 C 6.941406 3.828125 7.394531 3.851562 7.90625 3.6875 C 8.425781 3.53125 8.78125 3.25 8.96875 2.84375 C 9.15625 2.445312 9.148438 1.9375 8.953125 1.3125 L 8.421875 -0.359375 Z M 5.125 0.6875 "/></g></g></g><g fill="#000000" fill-opacity="1"><g transform="translate(251.574067, 181.3937)"><g><path d="M 9.25 1.609375 L 0.140625 2.203125 L 0.0625 1.015625 L 9.171875 0.421875 Z M 9.25 1.609375 "/></g></g></g><g fill="#000000" fill-opacity="1"><g transform="translate(251.663881, 194.209111)"><g><path d="M 6.828125 11.859375 L -2.046875 10.0625 L -1.796875 8.890625 L 4.8125 10.234375 L -1.203125 5.9375 L -1.03125 5.109375 L 6.1875 3.5 L -0.4375 2.15625 L -0.203125 1 L 8.671875 2.796875 L 8.421875 4.046875 L 0.421875 5.84375 L 7.09375 10.625 Z M 6.828125 11.859375 "/></g></g></g></svg>